<?xml version="1.0" standalone="no"?><!DOCTYPE svg PUBLIC "-//W3C//DTD SVG 1.1//EN" "http://www.w3.org/Graphics/SVG/1.1/DTD/svg11.dtd"><svg class="icon" width="200px" height="195.61px" viewBox="0 0 1047 1024" version="1.1" xmlns="http://www.w3.org/2000/svg"><path fill="#333333" d="M626.126208 165.639795a24.697783 24.697783 0 0 1 35.774364 0l130.299513 138.008215a24.697783 24.697783 0 0 1 0 35.774364l-485.573373 475.32005a23.200947 23.200947 0 0 1-17.887182 7.484177H145.642075a25.595884 25.595884 0 0 1-25.521042-25.521042V653.383579a23.200947 23.200947 0 0 1 7.484177-17.887182z m89.810118-76.637968l74.093348-74.093347a2.469778 2.469778 0 0 0 2.54462-2.54462 52.389236 52.389236 0 0 1 71.548727 5.08924l91.98053 104.778471a48.721989 48.721989 0 0 1-5.08924 69.004107l-79.25743 71.548728-155.895397-173.782579zM0 924.310769h1047.784713v99.689231H0z" /></svg>